<?xml version="1.0" encoding="utf-8"?>
<!-- Generator: Adobe Illustrator 16.0.0, SVG Export Plug-In . SVG Version: 6.00 Build 0)  -->
<!DOCTYPE svg PUBLIC "-//W3C//DTD SVG 1.1//EN" "http://www.w3.org/Graphics/SVG/1.1/DTD/svg11.dtd">
<svg version="1.1" id="Layer_1" xmlns="http://www.w3.org/2000/svg" xmlns:xlink="http://www.w3.org/1999/xlink" x="0px" y="0px"
	 width="170.29px" height="95.756px" viewBox="0 0 170.29 95.756" enable-background="new 0 0 170.29 95.756" xml:space="preserve">
<g>
	<g>
		<path fill="#FFFFFF" d="M22.523,54.034c2.696-0.476,5.105-1.177,7.227-2.103c2.121-0.925,4.004-2,5.645-3.227
			c1.642-1.226,3.083-2.574,4.323-4.047c1.24-1.472,2.325-3.005,3.254-4.601l2.061,9.092c-0.67,1.193-1.526,2.384-2.569,3.572
			c-1.042,1.188-2.219,2.278-3.531,3.267c-1.312,0.989-2.724,1.844-4.233,2.565c-1.511,0.721-3.04,1.218-4.589,1.491
			c-0.187,0.033-0.425,0.049-0.715,0.043c-0.289-0.004-0.794-0.011-1.511-0.021c-0.719-0.011-1.744-0.016-3.079-0.014
			c-1.335,0.003-3.139,0.038-5.411,0.108l0.128,0.722c0.858,4.858,1.23,9.343,1.116,13.45s-0.604,7.685-1.47,10.728
			c-0.866,3.045-2.046,5.482-3.54,7.314c-1.493,1.834-3.188,2.917-5.082,3.252c-1.521,0.27-2.855,0.119-4.003-0.448
			c-1.146-0.569-2.132-1.435-2.956-2.596c-0.825-1.163-1.514-2.567-2.066-4.219s-0.997-3.424-1.332-5.318
			c-0.193-1.096-0.238-2.36-0.134-3.796c0.104-1.438,0.316-2.961,0.638-4.572c0.32-1.613,0.71-3.265,1.168-4.956
			c0.459-1.691,0.944-3.34,1.46-4.944c1.212-3.738,2.658-7.627,4.339-11.668c-0.074-2.134-0.151-4.322-0.23-6.566
			C7.349,44.3,7.36,42.11,7.465,39.97c0.104-2.137,0.348-4.19,0.729-6.158c0.382-1.967,1.006-3.729,1.874-5.285
			c0.867-1.558,2.004-2.873,3.411-3.947c1.406-1.075,3.205-1.805,5.395-2.191c1.628-0.288,3.188-0.337,4.682-0.146
			c1.492,0.19,2.86,0.686,4.103,1.483c1.241,0.801,2.308,1.926,3.198,3.38c0.889,1.453,1.535,3.313,1.936,5.583
			c0.321,1.815,0.364,3.618,0.13,5.407c-0.235,1.79-0.782,3.56-1.644,5.308c-0.861,1.749-2.047,3.452-3.558,5.108
			c-1.511,1.658-3.372,3.232-5.586,4.726L22.523,54.034z M7.921,82.174c0.038,0.214,0.146,0.552,0.325,1.017
			c0.178,0.465,0.416,0.917,0.715,1.36c0.298,0.443,0.653,0.819,1.066,1.132c0.413,0.313,0.874,0.425,1.381,0.335
			c0.454-0.08,0.784-0.393,0.99-0.939c0.207-0.546,0.33-1.248,0.371-2.108c0.04-0.861,0.009-1.818-0.095-2.874
			s-0.227-2.135-0.366-3.239s-0.295-2.178-0.466-3.221c-0.17-1.044-0.303-1.984-0.395-2.821c-0.175-1.455-0.33-2.688-0.467-3.695
			c-0.137-1.009-0.252-1.85-0.343-2.521c-0.105-0.751-0.189-1.383-0.252-1.896c-0.352,0.971-0.665,2.079-0.94,3.325
			s-0.517,2.534-0.721,3.864c-0.206,1.331-0.372,2.653-0.497,3.969c-0.126,1.316-0.22,2.537-0.282,3.664
			c-0.062,1.125-0.098,2.095-0.105,2.909C7.833,81.248,7.86,81.828,7.921,82.174z M16.764,50.88c1.46-1.083,2.684-2.222,3.671-3.414
			c0.986-1.192,1.801-2.425,2.444-3.694c0.643-1.27,1.124-2.552,1.446-3.849c0.321-1.296,0.532-2.598,0.631-3.91
			c0.029-0.61-0.005-1.313-0.104-2.108c-0.099-0.793-0.31-1.521-0.633-2.18c-0.323-0.658-0.775-1.191-1.356-1.598
			s-1.312-0.532-2.192-0.376c-0.987,0.175-1.808,0.602-2.458,1.28c-0.65,0.68-1.167,1.534-1.549,2.564
			c-0.383,1.032-0.641,2.22-0.774,3.564c-0.135,1.346-0.186,2.773-0.152,4.28c0.032,1.509,0.142,3.066,0.329,4.671
			C16.252,47.716,16.485,49.306,16.764,50.88z"/>
		<path fill="#FFFFFF" d="M65.264,16.875c0.127,0.722,0.221,1.717,0.28,2.986c0.059,1.271,0.092,2.668,0.101,4.194
			c0.007,1.527,0.004,3.103-0.012,4.729c-0.015,1.627-0.029,3.144-0.042,4.55c-0.014,1.407-0.009,2.639,0.012,3.694
			c0.021,1.056,0.068,1.784,0.139,2.186c0.133,0.747,0.267,1.432,0.404,2.054c0.138,0.624,0.314,1.156,0.53,1.6
			c0.216,0.444,0.487,0.768,0.812,0.973c0.324,0.204,0.753,0.258,1.288,0.164c0.587-0.104,1.275-0.377,2.064-0.819
			s1.613-0.993,2.475-1.655c0.859-0.661,1.729-1.393,2.605-2.194s1.701-1.628,2.474-2.48c0.771-0.853,1.464-1.685,2.077-2.495
			c0.614-0.811,1.096-1.549,1.447-2.217c0.155,0.882,0.303,1.681,0.443,2.399s0.27,1.404,0.385,2.059
			c0.116,0.654,0.241,1.328,0.377,2.02c0.137,0.691,0.279,1.464,0.431,2.318c-0.483,0.69-1.101,1.447-1.85,2.268
			c-0.75,0.821-1.593,1.659-2.53,2.512c-0.937,0.854-1.944,1.692-3.023,2.517c-1.08,0.824-2.179,1.575-3.298,2.254
			c-1.119,0.681-2.24,1.265-3.366,1.751c-1.125,0.489-2.194,0.823-3.209,1.002c-1.015,0.18-1.918,0.131-2.709-0.142
			c-0.791-0.273-1.511-0.724-2.159-1.353c-0.647-0.629-1.24-1.412-1.777-2.35c-0.538-0.938-1.048-1.996-1.531-3.178
			c-0.739,1.426-1.551,2.758-2.433,4.002c-0.881,1.243-1.808,2.351-2.778,3.319c-0.972,0.97-1.985,1.774-3.042,2.415
			c-1.058,0.642-2.119,1.057-3.187,1.245c-0.881,0.155-1.735,0.155-2.562-0.002c-0.826-0.156-1.6-0.529-2.323-1.117
			s-1.359-1.418-1.906-2.492c-0.548-1.072-0.97-2.45-1.267-4.132c-0.363-2.056-0.579-4.715-0.646-7.98
			c-0.066-3.263-0.101-7.002-0.102-11.213c-0.018-0.411-0.013-0.969,0.014-1.675c0.025-0.707,0.096-1.483,0.208-2.329
			s0.281-1.715,0.51-2.608c0.228-0.894,0.535-1.719,0.925-2.477c0.39-0.756,0.887-1.409,1.492-1.957
			c0.605-0.547,1.333-0.909,2.183-1.087c1.424-0.196,2.471-0.195,3.139,0.003c0.668,0.199,1.042,0.525,1.123,0.979
			c0.01,1.458,0.027,3.078,0.054,4.863s0.048,3.583,0.065,5.398c0.018,1.813,0.04,3.578,0.068,5.294
			c0.027,1.715,0.05,3.247,0.067,4.592c0.018,1.347,0.037,2.43,0.059,3.253c0.021,0.82,0.034,1.246,0.039,1.271
			c0.085,0.48,0.213,0.934,0.385,1.357c0.171,0.424,0.38,0.794,0.629,1.106c0.248,0.315,0.537,0.554,0.869,0.714
			c0.331,0.162,0.697,0.208,1.098,0.137c0.587-0.104,1.161-0.363,1.721-0.779c0.56-0.415,1.062-0.958,1.508-1.629
			c0.446-0.671,0.809-1.463,1.088-2.38c0.277-0.917,0.43-1.929,0.455-3.033l0.37-21.042c0.021-0.664,0.466-1.301,1.335-1.909
			c0.87-0.607,1.906-1.019,3.107-1.23c1.361-0.24,2.485-0.191,3.371,0.148C64.623,15.585,65.132,16.128,65.264,16.875z"/>
		<path fill="#FFFFFF" d="M95.5,40.77c-0.062-0.347-0.122-0.845-0.182-1.495c-0.061-0.65-0.11-1.398-0.148-2.246
			c-0.04-0.846-0.074-1.741-0.104-2.686s-0.058-1.882-0.084-2.813c-0.084-2.188-0.129-4.546-0.136-7.078l-0.601,0.106
			c-0.249,0.456-0.511,1.122-0.783,1.995c-0.272,0.874-0.646,2.152-1.119,3.832c-0.475,1.682-1.073,3.858-1.798,6.533
			c-0.726,2.674-1.682,6.029-2.868,10.065c-0.341,1.189-0.83,2.04-1.47,2.551c-0.639,0.513-1.385,0.844-2.239,0.995
			c-1.096,0.193-2.018,0.115-2.767-0.234c-0.75-0.348-1.375-0.885-1.875-1.609c-0.499-0.723-0.897-1.576-1.194-2.556
			s-0.54-2.003-0.729-3.071c-0.193-1.095-0.355-2.4-0.485-3.92c-0.132-1.519-0.236-3.124-0.314-4.817
			c-0.079-1.691-0.13-3.425-0.154-5.196c-0.023-1.771-0.021-3.472,0.008-5.101c0.027-1.629,0.088-3.126,0.177-4.49
			c0.089-1.365,0.193-2.485,0.315-3.361c0.115-0.9,0.249-1.626,0.399-2.175c0.151-0.55,0.354-0.992,0.612-1.327
			c0.257-0.334,0.592-0.586,1.002-0.756c0.41-0.168,0.95-0.311,1.617-0.429c1.015-0.18,1.814-0.286,2.4-0.321
			s1.041,0.051,1.366,0.254c0.325,0.205,0.556,0.542,0.695,1.014c0.138,0.47,0.28,1.12,0.427,1.947
			c0.08,0.454,0.152,0.979,0.216,1.572c0.063,0.595,0.114,1.232,0.152,1.914s0.072,1.385,0.104,2.108s0.053,1.43,0.064,2.115
			c0.038,1.617,0.071,3.29,0.103,5.02l0.525,0.403c0.039-0.091,0.236-0.648,0.592-1.675c0.355-1.025,0.799-2.26,1.327-3.702
			c0.53-1.442,1.109-2.956,1.738-4.541c0.629-1.582,1.247-2.992,1.854-4.229c0.581-1.23,1.241-2.284,1.982-3.157
			c0.74-0.875,1.711-1.417,2.912-1.629c1.121-0.198,2.141-0.041,3.057,0.471c0.917,0.513,1.48,1.37,1.693,2.571
			c0.184,1.041,0.291,2.041,0.323,2.998c0.031,0.958,0.024,1.896-0.02,2.812c-0.045,0.916-0.101,1.812-0.165,2.691
			c-0.064,0.88-0.113,1.775-0.145,2.689c-0.024,0.638-0.037,1.038-0.034,1.204c0.001,0.164,0.007,0.273,0.016,0.326l0.526,0.404
			c0.039-0.091,0.258-0.646,0.655-1.665c0.397-1.021,0.888-2.256,1.472-3.708c0.583-1.452,1.208-2.98,1.874-4.585
			c0.666-1.604,1.304-3.023,1.911-4.261c0.585-1.204,1.2-2.24,1.845-3.112c0.645-0.87,1.527-1.405,2.648-1.604
			c1.255-0.222,2.374-0.082,3.356,0.419c0.983,0.501,1.581,1.352,1.794,2.553c0.325,1.842,0.54,3.607,0.646,5.296
			c0.105,1.688,0.18,3.354,0.222,4.998c0.043,1.644,0.116,3.304,0.219,4.979c0.104,1.674,0.318,3.434,0.644,5.274
			c0.254,1.442,0.648,2.585,1.183,3.426s1.067,1.215,1.603,1.121c0.561-0.1,1.126-0.323,1.698-0.672
			c0.57-0.35,1.145-0.767,1.719-1.254c0.575-0.487,1.125-1.031,1.652-1.634c0.526-0.602,1.023-1.219,1.489-1.854
			c1.091-1.457,2.142-3.075,3.149-4.85l2.35,9.33c-1.01,1.143-2.006,2.315-2.991,3.521c-0.984,1.207-2.052,2.332-3.202,3.374
			c-1.151,1.043-2.455,1.962-3.911,2.756c-1.457,0.793-3.16,1.363-5.108,1.707c-0.961,0.17-1.824-0.001-2.589-0.514
			c-0.765-0.51-1.446-1.292-2.045-2.343s-1.119-2.321-1.561-3.812c-0.443-1.491-0.822-3.132-1.138-4.921
			c-0.298-1.682-0.552-3.475-0.765-5.377c-0.212-1.903-0.382-3.835-0.508-5.794l-0.601,0.106l-4.472,22.138
			c-0.496,1.243-1.137,2.136-1.923,2.673c-0.786,0.538-1.739,0.906-2.86,1.104c-0.854,0.15-1.577,0.037-2.167-0.341
			c-0.589-0.376-1.089-0.908-1.498-1.592c-0.41-0.686-0.74-1.461-0.989-2.325S95.646,41.598,95.5,40.77z"/>
		<path fill="#FFFFFF" d="M147.781,31.906c2.696-0.476,5.105-1.177,7.227-2.103c2.121-0.925,4.004-2,5.645-3.227
			c1.642-1.226,3.083-2.574,4.322-4.046c1.241-1.473,2.326-3.005,3.255-4.602l2.061,9.092c-0.67,1.193-1.526,2.384-2.569,3.572
			c-1.043,1.189-2.22,2.278-3.531,3.268c-1.312,0.988-2.724,1.843-4.233,2.564c-1.511,0.721-3.041,1.218-4.589,1.491
			c-0.188,0.033-0.425,0.049-0.715,0.044c-0.289-0.005-0.794-0.011-1.511-0.022c-0.719-0.01-1.744-0.015-3.079-0.014
			c-1.335,0.003-3.139,0.038-5.411,0.108l0.128,0.722c0.858,4.858,1.23,9.343,1.116,13.45c-0.114,4.108-0.604,7.685-1.47,10.729
			s-2.046,5.481-3.54,7.313c-1.493,1.834-3.188,2.918-5.082,3.253c-1.521,0.269-2.855,0.118-4.003-0.449
			c-1.146-0.569-2.132-1.435-2.956-2.596c-0.825-1.162-1.514-2.567-2.066-4.219c-0.553-1.65-0.997-3.423-1.332-5.317
			c-0.193-1.096-0.238-2.361-0.134-3.797c0.104-1.437,0.316-2.961,0.638-4.572c0.32-1.612,0.71-3.265,1.168-4.956
			c0.459-1.691,0.944-3.34,1.46-4.944c1.212-3.737,2.658-7.627,4.339-11.668c-0.074-2.134-0.151-4.322-0.23-6.566
			c-0.08-2.242-0.068-4.433,0.036-6.572c0.104-2.137,0.347-4.19,0.729-6.158c0.382-1.966,1.006-3.729,1.874-5.285
			c0.866-1.558,2.004-2.873,3.411-3.947c1.406-1.075,3.205-1.805,5.394-2.191c1.629-0.288,3.189-0.337,4.683-0.146
			c1.492,0.19,2.859,0.687,4.103,1.483c1.241,0.801,2.308,1.926,3.198,3.38c0.889,1.453,1.535,3.313,1.936,5.583
			c0.32,1.815,0.364,3.618,0.13,5.407c-0.235,1.79-0.782,3.56-1.644,5.308c-0.861,1.749-2.047,3.452-3.558,5.108
			c-1.511,1.658-3.372,3.232-5.586,4.726L147.781,31.906z M133.179,60.046c0.038,0.214,0.146,0.553,0.325,1.018
			c0.178,0.464,0.416,0.916,0.715,1.359c0.298,0.443,0.653,0.819,1.066,1.132c0.413,0.314,0.874,0.425,1.381,0.335
			c0.454-0.08,0.783-0.393,0.99-0.938c0.207-0.547,0.33-1.249,0.371-2.109c0.04-0.861,0.009-1.818-0.095-2.874
			s-0.227-2.135-0.366-3.238c-0.14-1.105-0.295-2.179-0.466-3.222c-0.17-1.044-0.303-1.984-0.395-2.821
			c-0.175-1.455-0.331-2.688-0.467-3.695c-0.137-1.009-0.252-1.85-0.343-2.521c-0.105-0.752-0.189-1.384-0.252-1.896
			c-0.352,0.971-0.665,2.079-0.94,3.325s-0.517,2.534-0.721,3.864c-0.206,1.331-0.373,2.653-0.498,3.97
			c-0.125,1.315-0.219,2.537-0.281,3.663c-0.062,1.125-0.099,2.096-0.105,2.909C133.091,59.12,133.118,59.7,133.179,60.046z
			 M142.021,28.752c1.46-1.083,2.684-2.222,3.671-3.414c0.986-1.192,1.801-2.425,2.444-3.694c0.643-1.27,1.124-2.552,1.446-3.849
			c0.321-1.296,0.532-2.598,0.63-3.91c0.03-0.61-0.005-1.313-0.104-2.108c-0.099-0.793-0.31-1.521-0.633-2.179
			c-0.323-0.659-0.775-1.191-1.356-1.599c-0.581-0.406-1.312-0.531-2.192-0.376c-0.987,0.175-1.808,0.602-2.458,1.28
			c-0.65,0.68-1.167,1.534-1.55,2.564c-0.382,1.032-0.64,2.22-0.773,3.564c-0.135,1.346-0.186,2.773-0.153,4.28
			c0.033,1.509,0.143,3.066,0.33,4.671C141.51,25.588,141.743,27.178,142.021,28.752z"/>
	</g>
</g>
</svg>
